<?xml version="1.0" encoding="utf-8"?>
<!-- Generator: Adobe Illustrator 19.2.1, SVG Export Plug-In . SVG Version: 6.00 Build 0)  -->
<svg version="1.1" id="Layer_1" xmlns="http://www.w3.org/2000/svg" xmlns:xlink="http://www.w3.org/1999/xlink" x="0px" y="0px"
	 viewBox="0 0 106 106" enable-background="new 0 0 106 106" xml:space="preserve">
<polygon opacity="0.5" fill="#5AC6EC" enable-background="new    " points="17.1,101 28.9,101 34.4,106 18.7,105.5 "/>
<g>
	<g>
		<path fill="#4B20B3" d="M105,1v104H37.7l-6.3-5.8L31.2,99H31L4,98.7V85.3v-0.4l-0.4-0.3L1,81.8V1H105 M106,0H0v82.1l3,3.1v14.4
			l27.9,0.3l6.4,6.2H106V0L106,0z"/>
	</g>
</g>
<polygon fill="#4B20B3" points="1,41.5 6,46.9 6,36.7 1,31.4 "/>
<polygon fill="#322763" points="1,43 6,48.1 6,38.5 1,33.4 "/>
<polygon fill="#322763" points="1,72.5 6,77.6 6,68.1 1,63 "/>
<polygon fill="#322763" points="1,58.4 6,63.5 6,52.9 1,47.8 "/>
<polygon fill="#4B20B3" points="3,60.4 6,63.4 6,52.9 3,49.8 "/>
<polygon fill="#4B20B3" points="3,74.6 6,77.6 6,68.1 3,65 "/>
<polygon opacity="0.5" fill="#5AC6EC" enable-background="new    " points="5,76.3 6,77.6 6,68.1 5,66.7 "/>
<polygon opacity="0.5" fill="#5AC6EC" enable-background="new    " points="5,62.1 6,63.5 6,52.9 5,51.5 "/>
<polygon opacity="0.5" fill="#5AC6EC" enable-background="new    " points="5,46.9 6,48.3 6,38.7 5,37.3 "/>
<path fill="none" stroke="#4B20B3" stroke-width="1.0094" stroke-miterlimit="10" d="M20,105.5c8.8,0,17.5,0,26.3,0"/>
<polygon fill="#4B20B3" points="21.6,100.9 26.8,100.9 32.4,106 27.2,106 "/>
<polygon fill="#4B20B3" points="0,88.1 0,83.2 17.2,100.3 17.9,100.9 23.3,106 18,106 "/>
<polygon opacity="0.5" fill="#5AC6EC" enable-background="new    " points="4,94.5 10.9,101 11,101 14.7,101 4,90.2 "/>
<path fill="#4B20B3" d="M16,99.7L5,88.5v-6.3c-1.3-1.4-2.7-2.7-4-4.1v22.4l5.7,5.8h9.4L16,99.7z M9.8,101L5,96.3v-1.8l0,0v-2.4
	l9,8.9H9.8z"/>
</svg>
