<?xml version="1.0" encoding="utf-8"?>
<!-- Generator: Adobe Illustrator 19.2.0, SVG Export Plug-In . SVG Version: 6.00 Build 0)  -->
<svg version="1.1" id="Layer_1" xmlns="http://www.w3.org/2000/svg" xmlns:xlink="http://www.w3.org/1999/xlink" x="0px" y="0px"
	 viewBox="0 0 106 106" style="enable-background:new 0 0 106 106;" xml:space="preserve">
<style type="text/css">
	.st0{fill:#12607F;}
	.st1{fill:#0B6D9E;}
	.st2{fill:#0F8BBC;}
	.st3{opacity:0.5;fill:#5AC6EC;}
	.st4{opacity:0.57;fill:#4B20B3;}
	.st5{fill:none;stroke:#0B6D9E;stroke-miterlimit:10;}
</style>
<path class="st0" d="M5,88.3v-6.2c-1.3-1.3-2.7-2.7-4-4v22.1l5.7,5.7h7.8v-8.2L5,88.3z M9.9,100.8l-5-4.7v-3.7l8.8,8.4H9.9z"/>
<polygon class="st1" points="1,88.4 1,83.5 18.1,100.3 18.8,101 24.2,106 18.9,106 "/>
<polygon class="st1" points="1,74 6,79 6,69.5 1,64.5 "/>
<polygon class="st0" points="1,60 6,65 6,54.5 1,49.5 "/>
<polygon class="st2" points="3,62 6,65 6,54.5 3,51.5 "/>
<polygon class="st0" points="3,76 6,79 6,69.5 3,66.5 "/>
<polygon class="st3" points="5,77.7 6,79 6,69.5 5,68.2 "/>
<polygon class="st3" points="5,63.7 6,65 6,54.5 5,53.2 "/>
<polygon class="st3" points="5,92.6 11.8,99 12,99 15.6,99 5,88.3 "/>
<path class="st4" d="M3.3,15.9"/>
<g>
	<g>
		<path class="st0" d="M105,1v104H43.5l-6.2-5.8L37,99h-0.4H17L1,83.2V1H105 M106,0H0v83.6L16.6,100h20l6.5,6H106V0L106,0z"/>
	</g>
</g>
<path class="st5" d="M20.8,105.7c8.7,0,12.4,0,21.1,0"/>
<polygon class="st2" points="23.5,101 28.7,101 34.2,106 29,106 "/>
<g>
	<polygon class="st3" points="27.4,101 28.7,101 34.2,106 32.9,106 	"/>
</g>
</svg>
