<?xml version="1.0" encoding="utf-8"?>
<!-- Generator: Adobe Illustrator 21.1.0, SVG Export Plug-In . SVG Version: 6.00 Build 0)  -->
<svg version="1.1" id="Layer_1" xmlns="http://www.w3.org/2000/svg" xmlns:xlink="http://www.w3.org/1999/xlink" x="0px" y="0px"
	 viewBox="0 0 22 22" enable-background="new 0 0 22 22" xml:space="preserve">
<line fill="none" stroke="#5F778E" stroke-width="2" stroke-miterlimit="10" x1="22" y1="9" x2="22" y2="9"/>
<path fill="none" stroke="#5F778E" stroke-width="2" stroke-miterlimit="10" d="M5,3.9h5.9c2.4,0,4.6,1.5,5.5,3.7l1.2,2.8l4.1-1.3"
	/>
<path fill="none" stroke="#5F778E" stroke-width="2" stroke-miterlimit="10" d="M12.5,6.1c-0.1,0.1-1.6,1.7-2.8,3.1
	c-0.9,1-0.9,2.6,0.1,3.5l1.4,1.3"/>
<line fill="none" stroke="#5F778E" stroke-width="2" stroke-miterlimit="10" x1="7.7" y1="15" x2="0.4" y2="20.7"/>
<path fill="none" stroke="#5F778E" stroke-width="2" stroke-miterlimit="10" d="M16.3,7.3c0,0,0.3,0.9-0.4,1.8
	c-0.7,0.9-3.1,2.7-3.1,2.7l2.9,2.5c0.5,0.5,0.5,1.3-0.1,1.7l-5.9,4.3"/>
<line fill="none" stroke="#5F778E" stroke-width="2" stroke-miterlimit="10" x1="8" y1="8" x2="3" y2="8"/>
<line fill="none" stroke="#5F778E" stroke-width="2" stroke-miterlimit="10" x1="6" y1="11" x2="4" y2="11"/>
<line fill="none" stroke="#5F778E" stroke-width="2" stroke-miterlimit="10" x1="2" y1="8" x2="0" y2="8"/>
<line fill="none" stroke="#5F778E" stroke-width="2" stroke-miterlimit="10" x1="3" y1="11" x2="1" y2="11"/>
<path fill="none" stroke="#5F778E" stroke-width="2" stroke-miterlimit="10" d="M16.4,4.6L16.4,4.6c-0.5-0.6-0.4-1.5,0.1-2l0.8-0.7
	c0.6-0.5,1.5-0.4,2,0.1l0,0c0.5,0.6,0.4,1.5-0.1,2l-0.8,0.7C17.8,5.2,16.9,5.2,16.4,4.6z"/>
</svg>
