<?xml version="1.0" encoding="utf-8"?>
<!-- Generator: Adobe Illustrator 21.1.0, SVG Export Plug-In . SVG Version: 6.00 Build 0)  -->
<svg version="1.1" id="Layer_1" xmlns="http://www.w3.org/2000/svg" xmlns:xlink="http://www.w3.org/1999/xlink" x="0px" y="0px"
	 viewBox="0 0 22 22" enable-background="new 0 0 22 22" xml:space="preserve">
<g>
	<path fill="#ED4E51" d="M17.7,7.2c-0.1-0.8-0.7-1.4-1.5-1.4h-1.5c-0.4,0-0.7-0.4-0.6-0.8c0.3-0.6,0.3-1.4,0.2-2.2
		c-0.3-1.4-1.4-2.5-2.8-2.8C9.1-0.4,7.1,1.4,7.1,3.7c0,0.5,0.1,0.9,0.2,1.3c0.2,0.4-0.1,0.8-0.6,0.8H5.2c-0.8,0-1.4,0.6-1.5,1.4
		l-0.5,7.1h15L17.7,7.2z M11.2,5.8h-0.4h-0.2h-0.4c-1-0.2-1.7-1.1-1.7-2.2c0-1.2,1-2.2,2.2-2.2s2.2,1,2.2,2.2
		C13,4.7,12.2,5.6,11.2,5.8z"/>
	<g>
		<rect x="5.5" y="13.2" fill="#ED4E51" width="1.5" height="6.6"/>
		<path fill="#ED4E51" d="M6.3,22l-3.5-4.1h6.8L6.3,22z M6,19.4l0.3,0.3l0.3-0.3H6z"/>
	</g>
	<g>
		<rect x="14.3" y="13.2" fill="#ED4E51" width="1.5" height="6.6"/>
		<path fill="#ED4E51" d="M15.1,22l-3.5-4.1h6.8L15.1,22z M14.8,19.4l0.3,0.3l0.3-0.3H14.8z"/>
	</g>
</g>
</svg>
