<?xml version="1.0" encoding="utf-8"?>
<!-- Generator: Adobe Illustrator 21.1.0, SVG Export Plug-In . SVG Version: 6.00 Build 0)  -->
<svg version="1.1" id="Layer_1" xmlns="http://www.w3.org/2000/svg" xmlns:xlink="http://www.w3.org/1999/xlink" x="0px" y="0px"
	 viewBox="0 0 22 22" enable-background="new 0 0 22 22" xml:space="preserve">
<path fill="none" stroke="#5F778E" stroke-width="2" stroke-linejoin="round" stroke-miterlimit="10" d="M3.7,22v-5.3
	c0,0-7.9-12.2,3.6-15.1C17-0.9,18.4,5.9,18.9,7.3s2.1,5,2.1,5h-2.3v4.7c0,1.3-1,2.3-2.3,2.3h-2.1V22"/>
<path fill="#5F778E" stroke="#5F778E" stroke-miterlimit="10" d="M14.6,5.6c-0.7-1.2-3.2-1.9-4.2-0.6c0,0.1-0.1,0.1-0.1,0.2
	C9.9,4.8,9.5,4.5,8.9,4.5C8.2,4.4,7.3,4.9,7.3,5.7c-0.6-0.2-1.3-0.3-1.9,0C4.8,6.1,4.6,7,5.2,7.4C4.6,7,3.8,7.1,3.3,7.6
	C2.9,8.1,2.8,8.9,3.2,9.5c0.4,0.6,1.1,0.9,1.8,0.8c-0.5,0-0.9,0.7-0.7,1.2C4.4,12,5,12.3,5.5,12.3c0.5,0,1.1-0.2,1.5-0.5
	c0.4,0.6,1.3,0.8,2,0.7c0.8-0.1,1.5-0.4,2.2-0.9c0.5-0.4,0.6-0.8,0.6-1.3c0.3-0.1,0.6-0.2,0.8-0.3c0.5-0.2,0.9-0.4,1.4-0.6
	c0.3-0.2,0.6-0.3,0.8-0.6C15,8.4,15,8,15,7.7C15,7,15,6.2,14.6,5.6z"/>
</svg>
