<?xml version="1.0" encoding="utf-8"?>
<!-- Generator: Adobe Illustrator 21.1.0, SVG Export Plug-In . SVG Version: 6.00 Build 0)  -->
<svg version="1.1" id="Layer_1" xmlns="http://www.w3.org/2000/svg" xmlns:xlink="http://www.w3.org/1999/xlink" x="0px" y="0px"
	 viewBox="0 0 22 22" enable-background="new 0 0 22 22" xml:space="preserve">
<g>
	<g>
		<path fill="#5F778E" d="M3.8,12.8c0.9,0.4,1.9,0.7,2.8,0.7c1,0,1.9-0.2,2.8-0.7c1,0.2,1.8,1.4,1.8,2.9V17c0,0,0,0,0,0H2
			c0,0,0,0,0,0v-1.2C2,14.3,2.8,13,3.8,12.8 M9.2,10.8H9c-0.7,0.4-1.5,0.7-2.4,0.7S5,11.2,4.2,10.8H4c-2.2,0-4,2.2-4,4.9V17
			c0,1.1,0.7,2,1.6,2h9.9c0.9,0,1.7-0.9,1.7-2v-1.2C13.2,13,11.4,10.8,9.2,10.8L9.2,10.8z"/>
	</g>
</g>
<g>
	<g>
		<path fill="#5F778E" d="M6.6,4c1,0,1.9,0.8,1.9,1.8c0,1-0.8,1.9-1.9,1.9S4.8,6.9,4.8,5.9C4.8,4.8,5.6,4,6.6,4 M6.6,2
			C4.5,2,2.8,3.7,2.8,5.9c0,2.1,1.7,3.9,3.9,3.9s3.9-1.7,3.9-3.9C10.5,3.7,8.7,2,6.6,2L6.6,2z"/>
	</g>
</g>
<g>
	<g>
		<path fill="#5F778E" d="M18.4,12.8c0.8,0.2,1.6,1.4,1.6,3c0,0.1,0,0.1,0,0.2h-3.7v0c0-1-0.1-1.9-0.4-2.8c0.2,0,0.4,0,0.6,0
			C17.1,13.2,17.7,13.1,18.4,12.8 M18.1,10.8H18c-0.5,0.2-1,0.4-1.5,0.4s-1-0.1-1.5-0.4h-0.1c-0.7,0-1.3,0.3-1.9,0.7
			c0.8,1.2,1.4,2.7,1.4,4.5v1.7c0,0.1,0,0.2,0,0.3h6.1c0.9,0,1.6-1,1.6-2.2C22,13.1,20.3,10.8,18.1,10.8L18.1,10.8z"/>
	</g>
</g>
<g>
	<g>
		<path fill="#5F778E" d="M16.5,5.1c0.7,0,1.3,0.6,1.3,1.3c0,0.7-0.6,1.3-1.3,1.3s-1.3-0.6-1.3-1.3C15.2,5.7,15.8,5.1,16.5,5.1
			 M16.5,3.1c-1.8,0-3.3,1.5-3.3,3.3c0,1.8,1.5,3.3,3.3,3.3s3.3-1.5,3.3-3.3C19.8,4.6,18.3,3.1,16.5,3.1L16.5,3.1z"/>
	</g>
</g>
</svg>
