<?xml version="1.0" encoding="utf-8"?>
<!-- Generator: Adobe Illustrator 21.1.0, SVG Export Plug-In . SVG Version: 6.00 Build 0)  -->
<svg version="1.1" id="Layer_1" xmlns="http://www.w3.org/2000/svg" xmlns:xlink="http://www.w3.org/1999/xlink" x="0px" y="0px"
	 viewBox="0 0 22 22" enable-background="new 0 0 22 22" xml:space="preserve">
<rect x="2" y="5" fill="#5F778E" width="2" height="12"/>
<rect x="5" y="5" fill="#5F778E" width="2" height="12"/>
<rect x="8" y="10" fill="#5F778E" width="6" height="2"/>
<rect x="18" y="5" transform="matrix(-1 -4.229163e-11 4.229163e-11 -1 38 22)" fill="#5F778E" width="2" height="12"/>
<rect x="15" y="5" transform="matrix(-1 -4.138213e-11 4.138213e-11 -1 32 22)" fill="#5F778E" width="2" height="12"/>
<path fill="#5F778E" d="M21.5,13H21V9h0.5c0.3,0,0.5,0.4,0.5,1v2C22,12.6,21.8,13,21.5,13z"/>
<path fill="#5F778E" d="M0.5,13H1V9H0.5C0.2,9,0,9.2,0,9.5l0,3C0,12.8,0.2,13,0.5,13z"/>
</svg>
