<?xml version="1.0" encoding="utf-8"?>
<!-- Generator: Adobe Illustrator 21.1.0, SVG Export Plug-In . SVG Version: 6.00 Build 0)  -->
<svg version="1.1" id="Layer_1" xmlns="http://www.w3.org/2000/svg" xmlns:xlink="http://www.w3.org/1999/xlink" x="0px" y="0px"
	 viewBox="0 0 22 22" enable-background="new 0 0 22 22" xml:space="preserve">
<g>
	<path fill="#ED4E51" d="M6.5,17.2c-0.1,0-0.1,0-0.1,0.1c0,0.6,0.3,3.4,0.9,3.9c0.8,0.6,4.3,1.3,7.1,0c0.6-0.4,0.9-3.2,0.9-4.1
		c0-0.1-0.1-0.1-0.1-0.1l-0.9,0.8c0,0,0,0,0,0.1L13.8,20c-0.1,0.4-0.5,0.9-0.9,0.9H9.2c-0.4,0-0.8-0.4-0.9-0.8l-0.6-2.3
		c0-0.1-0.1-0.1-0.1-0.1L6.5,17.2z"/>
	<g>
		<g>
			<path fill="#ED4E51" d="M11,0c-0.1,0-0.1,0-0.1,0l0,0l0,0c-0.1,0-0.3,0-0.3,0C10.3,0,9,0.1,9,0.1c-7.9,1-6,8.9-5.3,10.6
				c0.5,1.4,1,3.1,1.2,3.9c0.1,0.3,0.3,0.5,0.5,0.6l2.3,1.3c0.3,0.1,0.4,0.3,0.5,0.5l0.1,0.5c0.3,0.4,0.6,0.6,1,0.6h3.2
				c0.5,0,0.9-0.4,1-0.8c0.1-0.3,0.3-0.5,0.5-0.6c0.6-0.4,1.8-1,2.6-1.3c0.3-0.1,0.5-0.4,0.6-0.8c0.3-1,0.9-2.9,1-3.2
				C18.6,10.9,21.9,0.4,11,0z M9.5,12.1c-0.4,0.8-1.2,1.3-1.9,1.4c-0.9,0-1.7-0.5-1.9-1.3c-0.3-0.9,0.3-1.9,0.6-2.2
				c0.4-0.3,0.9-0.3,1.4-0.3s1.2,0,1.6,0.4C9.8,10.5,9.8,11.4,9.5,12.1z M12.1,15.6l-0.5,0.3c-0.1,0-0.3,0-0.3,0l-0.1-0.1
				c-0.1-0.1-0.3-0.1-0.4,0c-0.1,0.1-0.1,0.1-0.3,0.1L10,15.7c-0.1,0-0.1-0.1-0.1-0.3v-0.8l0.8-1.2c0.3-0.3,0.5-0.3,0.8,0
				c0,0,0.8,0.9,0.8,1l0.1,0.8C12.2,15.3,12.2,15.4,12.1,15.6z M16.5,12.1c-0.3,0.8-1,1.4-1.9,1.3c-0.9,0-1.6-0.6-1.9-1.4
				c-0.3-0.6-0.3-1.6,0.3-1.9c0.4-0.4,1-0.4,1.6-0.4s0.9,0,1.4,0.3C16.1,10.2,16.7,11.3,16.5,12.1z"/>
		</g>
	</g>
</g>
</svg>
