<?xml version="1.0" encoding="utf-8"?>
<!-- Generator: Adobe Illustrator 21.1.0, SVG Export Plug-In . SVG Version: 6.00 Build 0)  -->
<svg version="1.1" id="Layer_1" xmlns="http://www.w3.org/2000/svg" xmlns:xlink="http://www.w3.org/1999/xlink" x="0px" y="0px"
	 viewBox="0 0 110 180" enable-background="new 0 0 110 180" xml:space="preserve">
<linearGradient id="SVGID_1_" gradientUnits="userSpaceOnUse" x1="0" y1="89.8211" x2="110" y2="89.8211">
	<stop  offset="0" style="stop-color:#580A0C"/>
	<stop  offset="0.8027" style="stop-color:#700C13"/>
</linearGradient>
<polygon fill="url(#SVGID_1_)" points="110,120.1 0,179.6 0,0 110,0 "/>
<g opacity="0.9">
	
		<linearGradient id="SVGID_2_" gradientUnits="userSpaceOnUse" x1="0.2797" y1="511.7115" x2="35.894" y2="483.6042" gradientTransform="matrix(1 0 0 -1 0 564)">
		<stop  offset="0" style="stop-color:#3A332C"/>
		<stop  offset="0.9892" style="stop-color:#252320"/>
	</linearGradient>
	<path fill="url(#SVGID_2_)" d="M40.5,77.7c-2.4-0.3-4.7-0.9-6.9-1.6c0.1,0,0.1,0,0.1,0c1.6-0.4,2.5-3.2,1.8-6.3s-3.6-6.2-4.5-6
		c-0.8,0.2-2.3,4.2-1.6,7.3c0.4,2,1.3,3.6,2.4,4.5c-0.1,0-0.1,0-0.1,0c-2.7-1.1-5.3-2.4-7.7-3.9c1.3-0.4,2.6-2.4,2.9-4.9
		c0.5-3-1-6.6-1.8-6.8C24.4,60,21.8,63,21.3,66c-0.3,1.6-0.1,3.1,0.3,4.1c-2.8-2-5.4-4.5-7.7-7.2c1,0.1,2.4-1.3,2.9-3.2
		c0.6-2.1-0.1-4.9-0.6-5.1c-0.6-0.2-2.7,1.8-3.4,3.9c-0.3,1-0.4,2-0.3,2.8c-0.6-0.9-1.3-1.8-1.8-2.7c0.7-0.9,0.4-3-0.8-5
		c-1.4-2.1-4.5-3.6-5.1-3.2c-0.6,0.4-0.5,3.8,1,5.9c1.1,1.6,2.6,2.7,3.7,2.8c0.5,0.7,0.9,1.5,1.5,2.2c-0.5-0.1-0.9-0.1-1.5-0.1
		c-2.2,0.1-4.7,1.7-4.7,2.3c0,0.6,2.6,2,4.8,2c1.6-0.1,2.9-0.6,3.6-1.3c1.9,2.2,4,4.2,6.2,6c-0.6-0.1-1.4,0-2.1,0.2
		c-3,0.5-6,3.1-5.8,3.9c0.2,0.8,3.8,2.3,6.8,1.8c2.6-0.4,4.6-1.8,4.9-3.1c1.9,1.2,3.9,2.3,6,3.2c-0.7,0.2-1.4,0.5-2,0.9
		c-2.8,1.6-4.8,5.4-4.3,6.1c0.5,0.7,4.7,0.7,7.4-0.9c2.1-1.3,3.6-3.1,3.7-4.5c2.1,0.6,4.2,1.1,6.4,1.4L40.5,77.7z"/>
	
		<linearGradient id="SVGID_4_" gradientUnits="userSpaceOnUse" x1="-12537.1914" y1="496.9905" x2="-12501.1475" y2="496.9905" gradientTransform="matrix(-1 0 0 -1 -12431.6914 564)">
		<stop  offset="0" style="stop-color:#3A332C"/>
		<stop  offset="0.9892" style="stop-color:#252320"/>
	</linearGradient>
	<path fill="url(#SVGID_4_)" d="M69.5,77.7c2.4-0.3,4.7-0.9,6.9-1.6c-0.1,0-0.1,0-0.1,0c-1.6-0.4-2.5-3.2-1.8-6.3s3.6-6.2,4.5-6
		c0.8,0.2,2.3,4.2,1.6,7.3c-0.4,2-1.3,3.6-2.4,4.5c0.1,0,0.1,0,0.1,0c2.7-1,5.3-2.3,7.7-3.8c-1.3-0.4-2.6-2.4-2.9-4.9
		c-0.5-3,1-6.6,1.8-6.8c0.8-0.1,3.4,2.9,3.8,5.9c0.3,1.6,0.1,3.1-0.3,4.1c2.8-2,5.4-4.5,7.7-7.2c-1,0.1-2.4-1.3-2.9-3.2
		c-0.6-2.1,0.1-4.9,0.6-5.1c0.6-0.2,2.7,1.8,3.4,3.9c0.3,1,0.4,2,0.3,2.8c0.6-0.9,1.3-1.8,1.8-2.7c-0.7-0.9-0.4-3,0.8-5
		c1.4-2.1,4.5-3.6,5.1-3.2c0.6,0.4,0.5,3.8-1,5.9c-1.1,1.6-2.6,2.7-3.7,2.8c-0.5,0.7-0.9,1.5-1.5,2.2c0.5-0.1,0.9-0.1,1.5-0.1
		c2.2,0.1,4.7,1.7,4.7,2.3s-2.6,2-4.8,2c-1.6-0.1-2.9-0.6-3.6-1.3c-1.9,2.2-4,4.2-6.2,6c0.6-0.1,1.4,0,2.1,0.2c3,0.5,6,3.1,5.8,3.9
		c-0.2,0.8-3.8,2.3-6.8,1.8c-2.6-0.4-4.6-1.8-4.9-3.1c-1.9,1.2-3.9,2.3-6,3.2c0.7,0.2,1.4,0.5,2,0.9c2.8,1.6,4.8,5.4,4.3,6.1
		c-0.4,0.7-4.7,0.8-7.4-0.8c-2.1-1.3-3.6-3.1-3.7-4.5c-2.1,0.6-4.2,1.1-6.4,1.4L69.5,77.7z"/>
	<path fill="#EB1C25" d="M55,51.7c-10,0-18.1,8.1-18.1,18.1c0,0.1,0,0.2,0,0.3c0,0.8,0,1.5,0.1,2.3H37C38.3,81.1,45.8,88,55,88
		c10,0,18.1-8.1,18.1-18.1C73.1,59.8,65,51.7,55,51.7z M55,85.6c-8.6,0-15.7-7-15.8-15.6c0.1-3.9,1.6-7.5,4.4-10.3
		c4.6-4.6,12-4.6,16.7,0c3.6,3.6,3.6,9.4,0,13c-1.2,1.2-2.7,1.9-4.4,2l0.2,2.4c2.2-0.2,4.3-1.2,5.8-2.7c4.5-4.5,4.5-11.8,0-16.3
		c-2.3-2.3-5-3.6-7.9-4c0.3,0,0.6-0.1,0.9-0.1c8.7,0,15.8,7.1,15.8,15.8C70.8,78.5,63.7,85.6,55,85.6z"/>
	<g>
		
			<linearGradient id="SVGID_5_" gradientUnits="userSpaceOnUse" x1="48.9682" y1="487.6311" x2="60.7524" y2="499.5898" gradientTransform="matrix(1 0 0 -1 0 564)">
			<stop  offset="0" style="stop-color:#E6CF79"/>
			<stop  offset="1" style="stop-color:#FFFFDB"/>
		</linearGradient>
		<circle fill="url(#SVGID_5_)" cx="54.8" cy="70.4" r="9.2"/>
		<path fill="#9B7E48" d="M54.9,78.5c-4.5,0-8.1-3.7-8.1-8.1s3.7-8.1,8.1-8.1S63,66,63,70.4S59.4,78.5,54.9,78.5z"/>
		
			<linearGradient id="SVGID_6_" gradientUnits="userSpaceOnUse" x1="47.0632" y1="493.5928" x2="62.7754" y2="493.5928" gradientTransform="matrix(1 0 0 -1 0 564)">
			<stop  offset="0" style="stop-color:#C8AB61"/>
			<stop  offset="1" style="stop-color:#C8AB61"/>
		</linearGradient>
		<path fill="url(#SVGID_6_)" d="M54.9,78.3c-4.3,0-7.9-3.5-7.9-7.9s3.5-7.9,7.9-7.9s7.9,3.5,7.9,7.9S59.2,78.3,54.9,78.3z"/>
		<path fill="#FDFDFD" d="M59,68.8c0.1-1.7-0.2-2-0.7-2.4c-0.5-0.4-1.7,0.5-2.1,0.7c-0.4,0.2-0.6,0.1-0.7-0.1
			c-0.1-0.2-0.1-0.4-0.1-0.6c0.1-0.6,0.1-1-0.1-1.3c-0.2-0.3-0.9-0.3-1.1-0.2c-0.1,0.1-0.1,0-0.1,0.1c0,0-0.5-0.2-0.7-0.1
			c-0.2,0.1-0.2,0.1-0.2,0.2c0,0.1,0,0.3,0,0.3s0.5-0.3,0.5,0c0,0.2-0.3,0.1-0.3,0.1s-0.1,0.3,0.5,0.4c0,0,0.1,0.3,0,0.6
			c-0.1,0.2-0.2,0.5-0.3,0.7c-0.1,0.1-0.3,0.1-0.5-0.1c-0.4-0.2-1.5-1-2.1-0.7c-0.5,0.4-0.8,0.6-0.7,2.4c0,0.1-0.3,6.8-0.3,6.8
			c0-0.1,0.6-0.5,0.6-0.5c0-0.1,0.4-3.9,0.4-3.9s0.1,3.6,0.1,3.6c0.2-0.1,0.2-0.3,0.2-0.3c0-0.1,0.3-3.6,0.3-3.6s0,3.3,0.1,3.2
			c0.1-0.1,0.3-0.2,0.3-0.3c0-0.1,0.4-3,0.4-3v2.7l0.3-0.4l1-3.1l-0.5,3.5h1.4h0.3h1.4L55.6,70l1.1,3.1l0.4,0.4v-2.7
			c0,0,0.4,2.9,0.4,3c0,0.1,0.2,0.2,0.3,0.3c0.1,0.1,0.1-3.2,0.1-3.2s0.3,3.6,0.3,3.6c0,0.1,0.1,0.2,0.2,0.3c0.1,0,0.1-3.6,0.1-3.6
			s0.4,3.9,0.4,3.9c0,0.1,0.5,0.5,0.6,0.5C59.3,75.6,59,68.9,59,68.8z"/>
	</g>
</g>
</svg>
