<?xml version="1.0" encoding="utf-8"?>
<!-- Generator: Adobe Illustrator 21.1.0, SVG Export Plug-In . SVG Version: 6.00 Build 0)  -->
<svg version="1.1" id="Layer_1" xmlns="http://www.w3.org/2000/svg" xmlns:xlink="http://www.w3.org/1999/xlink" x="0px" y="0px"
	 viewBox="0 0 110 180" enable-background="new 0 0 110 180" xml:space="preserve">
<linearGradient id="SVGID_1_" gradientUnits="userSpaceOnUse" x1="0" y1="89.8211" x2="110" y2="89.8211">
	<stop  offset="0" style="stop-color:#162B40"/>
	<stop  offset="0.9046" style="stop-color:#162B40"/>
	<stop  offset="1" style="stop-color:#162B40"/>
</linearGradient>
<polygon fill="url(#SVGID_1_)" points="110,120.1 0,179.6 0,0 110,0 "/>
<g opacity="0.88">
	<polygon fill="#19B88D" points="44,35.5 68.7,21 65.2,33.5 39.1,48.7 	"/>
	<polygon fill="#19B88D" points="54.2,44.4 86.8,26 83.3,38.5 49.3,57.7 	"/>
	<g>
		<polygon fill="#19B88D" points="81.6,91.2 90.5,86 90.5,49.4 81,44.3 71.7,49.8 81.6,54.2 		"/>
	</g>
	<g>
		<polygon fill="#19B88D" points="28.4,53.4 38.3,49 29,43.6 19.5,48.6 19.5,85.2 28.4,90.4 		"/>
	</g>
	<path fill="#4E86A6" d="M80.9,66.4L66,76.6l-11.3-5.7l-11.4,5.3l-14.2-9.7l2.4,10l4.6,3.1L33,80.9l21.8,10.8l4.6-2.2l0,0l0.1-0.1
		l16.5-7.9l-2.9-1.5l5.5-3.8L80.9,66.4z M48.4,80.9l6.3-7.1l5.8,7.1l-5.8,7.1L48.4,80.9z"/>
	<g>
		<g>
			<g>
				<polygon fill="#19B88D" points="19.5,100 54.7,120.9 54.7,110.4 19.5,89.2 				"/>
			</g>
			<g>
				<polygon fill="#19B88D" points="54.7,110.4 54.7,121 90.5,100.5 90.5,89.7 				"/>
			</g>
		</g>
	</g>
</g>
</svg>
