<?xml version="1.0" encoding="utf-8"?>
<!-- Generator: Adobe Illustrator 21.1.0, SVG Export Plug-In . SVG Version: 6.00 Build 0)  -->
<svg version="1.1" id="Layer_1" xmlns="http://www.w3.org/2000/svg" xmlns:xlink="http://www.w3.org/1999/xlink" x="0px" y="0px"
	 viewBox="0 0 110 180" enable-background="new 0 0 110 180" xml:space="preserve">
<linearGradient id="SVGID_1_" gradientUnits="userSpaceOnUse" x1="0" y1="89.8211" x2="110" y2="89.8211">
	<stop  offset="0" style="stop-color:#10B350"/>
	<stop  offset="1" style="stop-color:#0DAA45"/>
</linearGradient>
<polygon fill="url(#SVGID_1_)" points="110,120.1 0,179.6 0,0 110,0 "/>
<g>
	<polygon points="66,54.8 73.3,68.5 86.5,75.9 73.3,83.4 66,97 58.8,83.4 45.5,75.9 58.8,68.5 	"/>
	<polygon points="90.3,49 94.6,57.1 102.5,61.5 94.6,66 90.3,74.1 86,66 78.1,61.5 86,57.1 	"/>
	<polygon fill="#303030" points="68,58.7 66,54.8 58.8,68.5 45.5,75.9 58.8,83.4 66,97 68,93.2 	"/>
	<polygon fill="#303030" points="92.5,53.1 92.5,70 94.6,66 102.5,61.5 94.6,57.1 	"/>
</g>
</svg>
