<?xml version="1.0" encoding="utf-8"?>
<!-- Generator: Adobe Illustrator 21.1.0, SVG Export Plug-In . SVG Version: 6.00 Build 0)  -->
<svg version="1.1" id="Layer_1" xmlns="http://www.w3.org/2000/svg" xmlns:xlink="http://www.w3.org/1999/xlink" x="0px" y="0px"
	 viewBox="0 0 112 112" enable-background="new 0 0 112 112" xml:space="preserve">
<linearGradient id="SVGID_1_" gradientUnits="userSpaceOnUse" x1="0" y1="56" x2="112" y2="56">
	<stop  offset="0" style="stop-color:#162B40"/>
	<stop  offset="0.4157" style="stop-color:#162E43"/>
	<stop  offset="0.7418" style="stop-color:#18384C"/>
	<stop  offset="1" style="stop-color:#1A4658"/>
</linearGradient>
<circle fill="url(#SVGID_1_)" cx="56" cy="56" r="56"/>
<g>
	<polygon fill="#19B88D" points="46.3,24.7 68,12 65,23 42,36.4 	"/>
	<polygon fill="#19B88D" points="55.3,32.6 84,16.4 80.9,27.4 51,44.3 	"/>
	<g>
		<polygon fill="#19B88D" points="79.4,73.8 87.2,69.2 87.2,37 78.9,32.5 70.7,37.3 79.4,41.2 		"/>
	</g>
	<g>
		<polygon fill="#19B88D" points="32.6,40.5 41.3,36.6 33.1,31.9 24.8,36.3 24.8,68.5 32.6,73.1 		"/>
	</g>
	<path fill="#4E86A6" d="M78.8,51.9l-13.1,9l-9.9-5l-10,4.7l-12.5-8.6l2.1,8.8l4,2.8l-2.7,1.2l19.2,9.5l4-1.9l0,0l0.1-0.1l14.5-6.9
		L71.9,64l4.8-3.3L78.8,51.9z M50.2,64.7l5.5-6.3l5.1,6.3L55.8,71L50.2,64.7z"/>
	<g>
		<g>
			<g>
				<polygon fill="#19B88D" points="24.8,81.5 55.8,99.9 55.8,90.7 24.8,72 				"/>
			</g>
			<g>
				<polygon fill="#19B88D" points="55.8,90.7 55.8,100 87.2,81.9 87.2,72.4 				"/>
			</g>
		</g>
	</g>
</g>
</svg>
