<?xml version="1.0" encoding="utf-8"?>
<!-- Generator: Adobe Illustrator 21.1.0, SVG Export Plug-In . SVG Version: 6.00 Build 0)  -->
<svg version="1.1" id="Layer_1" xmlns="http://www.w3.org/2000/svg" xmlns:xlink="http://www.w3.org/1999/xlink" x="0px" y="0px"
	 viewBox="0 0 112 112" enable-background="new 0 0 112 112" xml:space="preserve">
<linearGradient id="SVGID_1_" gradientUnits="userSpaceOnUse" x1="0" y1="56" x2="112" y2="56">
	<stop  offset="0" style="stop-color:#10B350"/>
	<stop  offset="0.6783" style="stop-color:#0EAE4A"/>
	<stop  offset="1" style="stop-color:#0DAA45"/>
</linearGradient>
<circle fill="url(#SVGID_1_)" cx="56" cy="56" r="56"/>
<g>
	<polygon points="64.5,35.8 71.8,49.5 85,56.9 71.8,64.4 64.5,78 57.3,64.4 44,56.9 57.3,49.5 	"/>
	<polygon points="88.8,30 93.1,38.1 101,42.5 93.1,47 88.8,55.1 84.5,47 76.6,42.5 84.5,38.1 	"/>
	<polygon fill="#303030" points="66.5,39.7 64.5,35.8 57.3,49.5 44,56.9 57.3,64.4 64.5,78 66.5,74.2 	"/>
	<polygon fill="#303030" points="91,34.1 91,51 93.1,47 101,42.5 93.1,38.1 	"/>
</g>
</svg>
