<?xml version="1.0" encoding="utf-8"?>
<!-- Generator: Adobe Illustrator 21.1.0, SVG Export Plug-In . SVG Version: 6.00 Build 0)  -->
<svg version="1.1" id="Layer_1" xmlns="http://www.w3.org/2000/svg" xmlns:xlink="http://www.w3.org/1999/xlink" x="0px" y="0px"
	 viewBox="0 0 112 112" enable-background="new 0 0 112 112" xml:space="preserve">
<linearGradient id="SVGID_1_" gradientUnits="userSpaceOnUse" x1="0" y1="56" x2="112" y2="56">
	<stop  offset="0" style="stop-color:#580A0C"/>
	<stop  offset="0.527" style="stop-color:#700C13"/>
	<stop  offset="0.7474" style="stop-color:#680B11"/>
	<stop  offset="1" style="stop-color:#580A0C"/>
</linearGradient>
<circle fill="url(#SVGID_1_)" cx="56" cy="56" r="56"/>
<path opacity="0.3" fill="#272521" enable-background="new    " d="M101.5,49.1c-0.5,0-1,0-1.5,0.1c0.5-0.7,1-1.4,1.5-2.2
	c1.2-0.1,2.6-1.1,3.7-2.8c1.4-2.1,1.6-5.6,1-5.9c-0.6-0.4-3.7,1-5.1,3.2c-1.3,1.9-1.6,4-0.8,5c-0.6,0.9-1.2,1.8-1.8,2.7
	c0.1-0.8,0.1-1.8-0.3-2.8c-0.6-2.1-2.8-4-3.4-3.9c-0.6,0.2-1.3,3-0.6,5.1c0.6,1.9,1.9,3.4,2.9,3.2c-2.3,2.7-4.8,5.1-7.7,7.2
	c0.4-1.1,0.6-2.6,0.3-4.1c-0.5-3-3-6-3.8-5.9c-0.8,0.1-2.3,3.8-1.8,6.8c0.4,2.5,1.6,4.5,2.9,4.9c-2.4,1.5-5,2.8-7.7,3.8
	c-0.1,0-0.1,0-0.1,0c1-0.8,1.9-2.5,2.4-4.5c0.7-3.1-0.7-7.2-1.6-7.3c-0.8-0.2-3.8,2.9-4.5,6s0.1,6,1.8,6.3c0.1,0,0.1,0,0.1,0
	c-1.6,0.5-3.2,0.9-4.9,1.3c1-2.3,1.7-4.9,1.7-7.6c0-10-8.1-18.1-18.1-18.1s-18.1,8.1-18.1,18.1c0,0.1,0,0.2,0,0.3
	c0,0.8,0,1.5,0.1,2.3H38c0.3,1.8,0.8,3.5,1.5,5c-1.7-0.3-3.3-0.7-4.9-1.3c0.1,0,0.1,0,0.1,0c1.6-0.4,2.5-3.2,1.8-6.3
	c-0.7-3.1-3.6-6.2-4.5-6c-0.8,0.2-2.3,4.2-1.6,7.3c0.4,2,1.3,3.6,2.4,4.5c-0.1,0-0.1,0-0.1,0c-2.7-0.9-5.3-2.2-7.7-3.7
	c1.3-0.4,2.6-2.4,2.9-4.9c0.5-3-1-6.6-1.8-6.8C25.4,48,22.8,51,22.3,54c-0.3,1.6-0.1,3.1,0.3,4.1c-2.8-2-5.4-4.5-7.7-7.2
	c1,0.1,2.4-1.3,2.9-3.2c0.6-2.1-0.1-4.9-0.6-5.1c-0.6-0.2-2.7,1.8-3.4,3.9c-0.3,1-0.4,2-0.3,2.8c-0.6-0.9-1.3-1.8-1.8-2.7
	c0.7-0.9,0.4-3-0.8-5c-1.4-2.1-4.5-3.6-5.1-3.2c-0.6,0.4-0.5,3.8,1,5.9c1.1,1.6,2.6,2.7,3.7,2.8c0.5,0.7,0.9,1.5,1.5,2.2
	c-0.5-0.1-0.9-0.1-1.5-0.1c-2.2,0.1-4.7,1.7-4.7,2.3s2.6,2,4.8,2c1.6-0.1,2.9-0.6,3.6-1.3c1.9,2.2,4,4.2,6.2,6
	c-0.6-0.1-1.4,0-2.1,0.2c-3,0.5-6,3.1-5.8,3.9c0.2,0.8,3.8,2.3,6.8,1.8c2.6-0.4,4.6-1.8,4.9-3.1c1.9,1.2,3.9,2.3,6,3.2
	c-0.7,0.2-1.4,0.5-2,0.9c-2.8,1.6-4.8,5.4-4.3,6.1c0.5,0.7,4.7,0.7,7.4-0.9c2.1-1.3,3.6-3.1,3.7-4.5c1.7,0.5,3.5,0.9,5.3,1.3
	C43.4,72.3,49.3,76,56,76s12.6-3.7,15.7-9.1c1.8-0.3,3.6-0.7,5.3-1.3c0.2,1.4,1.5,3.2,3.7,4.5c2.8,1.6,7,1.6,7.4,0.8
	c0.4-0.7-1.5-4.5-4.3-6.1c-0.7-0.4-1.4-0.7-2-0.9c2.1-0.9,4.1-2,6-3.2c0.3,1.4,2.3,2.7,4.9,3.1c3,0.5,6.7-1,6.8-1.8
	s-2.9-3.4-5.8-3.9c-0.7-0.1-1.4-0.2-2.1-0.2c2.3-1.8,4.3-3.8,6.2-6c0.6,0.7,2,1.3,3.6,1.3c2.2,0.1,4.8-1.4,4.8-2
	C106.1,50.8,103.7,49.2,101.5,49.1z M56,73.6c-8.6,0-15.7-7-15.8-15.6c0.1-3.9,1.6-7.5,4.4-10.3c4.6-4.6,12-4.6,16.7,0
	c1.8,1.8,2.7,4.1,2.7,6.4c-1.5-2.9-4.6-4.9-8.1-4.9c-5.1,0-9.2,4.1-9.2,9.2s4.1,9.2,9.2,9.2c4.6,0,8.4-3.4,9.1-7.8
	c2.4-4.4,1.7-10-1.9-13.7c-2.3-2.3-5-3.6-7.9-4c0.3,0,0.6-0.1,0.9-0.1c8.7,0,15.8,7.1,15.8,15.8C71.8,66.6,64.7,73.6,56,73.6z"/>
<g>
	
		<linearGradient id="SVGID_2_" gradientUnits="userSpaceOnUse" x1="1.2797" y1="516.7115" x2="36.894" y2="488.6042" gradientTransform="matrix(1 0 0 -1 0 556)">
		<stop  offset="0" style="stop-color:#3A332C"/>
		<stop  offset="0.9892" style="stop-color:#252320"/>
	</linearGradient>
	<path fill="url(#SVGID_2_)" d="M41.5,64.7c-2.4-0.3-4.7-0.9-6.9-1.6c0.1,0,0.1,0,0.1,0c1.6-0.4,2.5-3.2,1.8-6.3
		c-0.7-3.1-3.6-6.2-4.5-6c-0.8,0.2-2.3,4.2-1.6,7.3c0.4,2,1.3,3.6,2.4,4.5c-0.1,0-0.1,0-0.1,0c-2.7-1.1-5.3-2.4-7.7-3.9
		c1.3-0.4,2.6-2.4,2.9-4.9c0.5-3-1-6.6-1.8-6.8C25.4,47,22.8,50,22.3,53c-0.3,1.6-0.1,3.1,0.3,4.1c-2.8-2-5.4-4.5-7.7-7.2
		c1,0.1,2.4-1.3,2.9-3.2c0.6-2.1-0.1-4.9-0.6-5.1c-0.6-0.2-2.7,1.8-3.4,3.9c-0.3,1-0.4,2-0.3,2.8c-0.6-0.9-1.3-1.8-1.8-2.7
		c0.7-0.9,0.4-3-0.8-5c-1.4-2.1-4.5-3.6-5.1-3.2c-0.6,0.4-0.5,3.8,1,5.9c1.1,1.6,2.6,2.7,3.7,2.8c0.5,0.7,0.9,1.5,1.5,2.2
		c-0.5-0.1-0.9-0.1-1.5-0.1c-2.2,0.1-4.7,1.7-4.7,2.3c0,0.6,2.6,2,4.8,2c1.6-0.1,2.9-0.6,3.6-1.3c1.9,2.2,4,4.2,6.2,6
		c-0.6-0.1-1.4,0-2.1,0.2c-3,0.5-6,3.1-5.8,3.9s3.8,2.3,6.8,1.8c2.6-0.4,4.6-1.8,4.9-3.1c1.9,1.2,3.9,2.3,6,3.2
		c-0.7,0.2-1.4,0.5-2,0.9c-2.8,1.6-4.8,5.4-4.3,6.1c0.5,0.7,4.7,0.7,7.4-0.9c2.1-1.3,3.6-3.1,3.7-4.5c2.1,0.6,4.2,1.1,6.4,1.4
		L41.5,64.7z"/>
	
		<linearGradient id="SVGID_4_" gradientUnits="userSpaceOnUse" x1="-11428.1914" y1="501.9905" x2="-11392.1475" y2="501.9905" gradientTransform="matrix(-1 0 0 -1 -11321.6914 556)">
		<stop  offset="0" style="stop-color:#3A332C"/>
		<stop  offset="0.9892" style="stop-color:#252320"/>
	</linearGradient>
	<path fill="url(#SVGID_4_)" d="M70.5,64.7c2.4-0.3,4.7-0.9,6.9-1.6c-0.1,0-0.1,0-0.1,0c-1.6-0.4-2.5-3.2-1.8-6.3
		c0.7-3.1,3.6-6.2,4.5-6c0.8,0.2,2.3,4.2,1.6,7.3c-0.4,2-1.3,3.6-2.4,4.5c0.1,0,0.1,0,0.1,0c2.7-1,5.3-2.3,7.7-3.8
		c-1.3-0.4-2.6-2.4-2.9-4.9c-0.5-3,1-6.6,1.8-6.8c0.8-0.1,3.4,2.9,3.8,5.9c0.3,1.6,0.1,3.1-0.3,4.1c2.8-2,5.4-4.5,7.7-7.2
		c-1,0.1-2.4-1.3-2.9-3.2c-0.6-2.1,0.1-4.9,0.6-5.1c0.6-0.2,2.7,1.8,3.4,3.9c0.3,1,0.4,2,0.3,2.8c0.6-0.9,1.3-1.8,1.8-2.7
		c-0.7-0.9-0.4-3,0.8-5c1.4-2.1,4.5-3.6,5.1-3.2c0.6,0.4,0.5,3.8-1,5.9c-1.1,1.6-2.6,2.7-3.7,2.8c-0.5,0.7-0.9,1.5-1.5,2.2
		c0.5-0.1,0.9-0.1,1.5-0.1c2.2,0.1,4.7,1.7,4.7,2.3s-2.6,2-4.8,2c-1.6-0.1-2.9-0.6-3.6-1.3c-1.9,2.2-4,4.2-6.2,6
		c0.6-0.1,1.4,0,2.1,0.2c3,0.5,6,3.1,5.8,3.9c-0.2,0.8-3.8,2.3-6.8,1.8c-2.6-0.4-4.6-1.8-4.9-3.1c-1.9,1.2-3.9,2.3-6,3.2
		c0.7,0.2,1.4,0.5,2,0.9c2.8,1.6,4.8,5.4,4.3,6.1c-0.4,0.7-4.7,0.8-7.4-0.8c-2.1-1.3-3.6-3.1-3.7-4.5c-2.1,0.6-4.2,1.1-6.4,1.4
		L70.5,64.7z"/>
	<path fill="#EB1C25" d="M56,38.7c-10,0-18.1,8.1-18.1,18.1c0,0.1,0,0.2,0,0.3c0,0.8,0,1.5,0.1,2.3H38C39.3,68.1,46.8,75,56,75
		c10,0,18.1-8.1,18.1-18.1S66,38.7,56,38.7z M56,72.6c-8.6,0-15.7-7-15.8-15.6c0.1-3.9,1.6-7.5,4.4-10.3c4.6-4.6,12-4.6,16.7,0
		c3.6,3.6,3.6,9.4,0,13c-1.2,1.2-2.7,1.9-4.4,2l0.2,2.4c2.2-0.2,4.3-1.2,5.8-2.7c4.5-4.5,4.5-11.8,0-16.3c-2.3-2.3-5-3.6-7.9-4
		c0.3,0,0.6-0.1,0.9-0.1c8.7,0,15.8,7.1,15.8,15.8C71.8,65.5,64.7,72.6,56,72.6z"/>
	<g>
		
			<linearGradient id="SVGID_5_" gradientUnits="userSpaceOnUse" x1="49.9682" y1="492.6311" x2="61.7524" y2="504.5898" gradientTransform="matrix(1 0 0 -1 0 556)">
			<stop  offset="0" style="stop-color:#E6CF79"/>
			<stop  offset="1" style="stop-color:#FFFFDB"/>
		</linearGradient>
		<circle fill="url(#SVGID_5_)" cx="55.8" cy="57.4" r="9.2"/>
		<path fill="#9B7E48" d="M55.9,65.5c-4.5,0-8.1-3.7-8.1-8.1s3.7-8.1,8.1-8.1S64,53,64,57.4S60.4,65.5,55.9,65.5z"/>
		
			<linearGradient id="SVGID_6_" gradientUnits="userSpaceOnUse" x1="48.0632" y1="498.5928" x2="63.7754" y2="498.5928" gradientTransform="matrix(1 0 0 -1 0 556)">
			<stop  offset="0" style="stop-color:#C8AB61"/>
			<stop  offset="1" style="stop-color:#C8AB61"/>
		</linearGradient>
		<path fill="url(#SVGID_6_)" d="M55.9,65.3c-4.3,0-7.9-3.5-7.9-7.9s3.5-7.9,7.9-7.9s7.9,3.5,7.9,7.9S60.2,65.3,55.9,65.3z"/>
		<path fill="#FDFDFD" d="M60,55.8c0.1-1.7-0.2-2-0.7-2.4c-0.5-0.4-1.7,0.5-2.1,0.7c-0.4,0.2-0.6,0.1-0.7-0.1
			c-0.1-0.2-0.1-0.4-0.1-0.6c0.1-0.6,0.1-1-0.1-1.3c-0.2-0.3-0.9-0.3-1.1-0.2c-0.1,0.1-0.1,0-0.1,0.1c0,0-0.5-0.2-0.7-0.1
			s-0.2,0.1-0.2,0.2s0,0.3,0,0.3s0.5-0.3,0.5,0c0,0.2-0.3,0.1-0.3,0.1s-0.1,0.3,0.5,0.4c0,0,0.1,0.3,0,0.6c-0.1,0.2-0.2,0.5-0.3,0.7
			c-0.1,0.1-0.3,0.1-0.5-0.1c-0.4-0.2-1.5-1-2.1-0.7c-0.5,0.4-0.8,0.6-0.7,2.4c0,0.1-0.3,6.8-0.3,6.8c0-0.1,0.6-0.5,0.6-0.5
			c0-0.1,0.4-3.9,0.4-3.9s0.1,3.6,0.1,3.6c0.2-0.1,0.2-0.3,0.2-0.3s0.3-3.6,0.3-3.6s0,3.3,0.1,3.2c0.1-0.1,0.3-0.2,0.3-0.3
			c0-0.1,0.4-3,0.4-3v2.7l0.3-0.4l1-3.1l-0.5,3.5h1.4h0.3h1.4L56.6,57l1.1,3.1l0.4,0.4v-2.7c0,0,0.4,2.9,0.4,3
			c0,0.1,0.2,0.2,0.3,0.3c0.1,0.1,0.1-3.2,0.1-3.2s0.3,3.6,0.3,3.6c0,0.1,0.1,0.2,0.2,0.3c0.1,0,0.1-3.6,0.1-3.6s0.4,3.9,0.4,3.9
			c0,0.1,0.5,0.5,0.6,0.5C60.3,62.6,60,55.9,60,55.8z"/>
	</g>
</g>
</svg>
